<svg width="39" height="26" viewBox="0 0 39 26" fill="none" xmlns="http://www.w3.org/2000/svg">
<g clip-path="url(#clip0_1117_187)">
<path d="M14.1817 0C14.1817 0 9.698 0 4.797 3.2019C4.797 3.2019 0 11.2541 0 21.3434C0 21.3434 2.8158 25.9038 10.1153 26L12.5138 23.5742C8.1341 22.3132 6.6742 19.7912 6.6742 19.7912C12.4098 24.739 27.2168 24.5453 32.6391 19.7912C32.6391 19.7912 30.9712 22.5082 26.6955 23.5742L28.8847 26C36.1842 25.9025 39 21.3434 39 21.3434C39 11.2541 34.203 3.2019 34.203 3.2019C29.302 0 24.8183 0 24.8183 0L24.297 0.3887C29.8233 1.7472 33.3697 4.3667 33.2644 4.4629C27.5301 0.3887 12.9311 0 5.8396 4.4629C5.8396 4.4629 8.4461 1.9409 14.495 0.3887L14.1817 0ZM13.2431 11.6415C14.1557 11.6415 15.0306 11.999 15.6767 12.636C16.3228 13.273 16.6842 14.1362 16.6842 15.0371C16.6842 15.938 16.3215 16.8012 15.6767 17.4382C15.0319 18.0752 14.1557 18.4327 13.2431 18.4327C12.7915 18.4326 12.3443 18.3448 11.9262 18.174C11.5095 18.004 11.1301 17.7541 10.8095 17.4382C10.4906 17.124 10.2369 16.7498 10.0633 16.3371C9.89043 15.9257 9.80139 15.484 9.80139 15.0377C9.80139 14.5915 9.89043 14.1498 10.0633 13.7384C10.2369 13.3257 10.4906 12.9515 10.8095 12.6373C11.1301 12.3214 11.5095 12.0715 11.9262 11.9015C12.3443 11.7307 12.7915 11.6429 13.2431 11.6428V11.6415ZM25.3396 11.6415C26.2522 11.6415 27.1271 11.999 27.7732 12.636C28.4193 13.273 28.7807 14.1362 28.7807 15.0371C28.7807 15.938 28.418 16.8012 27.7732 17.4382C27.1284 18.0752 26.2522 18.4327 25.3396 18.4327C24.427 18.4327 23.5521 18.0752 22.906 17.4382C22.2599 16.8012 21.8985 15.938 21.8985 15.0371C21.8985 14.1362 22.2612 13.273 22.906 12.636C23.5508 11.999 24.427 11.6415 25.3396 11.6415Z" fill="white"/>
</g>
<defs>
<clipPath id="clip0_1117_187">
<rect width="39" height="26" fill="white"/>
</clipPath>
</defs>
</svg>
