<svg width="39" height="21" viewBox="0 0 39 21" fill="none" xmlns="http://www.w3.org/2000/svg">
<path d="M19.3725 5.52941C19.3725 6.27687 19.203 6.98558 18.9011 7.6168L22.1267 10.8456C22.7784 10.5324 23.4926 10.3707 24.2157 10.3725C25.0369 10.3714 25.8448 10.5798 26.563 10.9779L29.6642 7.87672C29.1109 6.87746 28.9285 5.7148 29.1494 4.59413C29.3703 3.47346 29.9801 2.46691 30.8712 1.75231C31.7623 1.03771 32.8772 0.661051 34.0191 0.688877C35.161 0.716703 36.2563 1.14722 37.1115 1.90438C37.9668 2.66153 38.5269 3.69659 38.6929 4.82668C38.8589 5.95678 38.6201 7.10919 38.0188 8.08031C37.4174 9.05143 36.4922 9.77876 35.4066 10.1338C34.3209 10.4888 33.1447 10.4488 32.0858 10.0206L28.7069 13.3995C29.0083 14.1463 29.1188 14.9564 29.0283 15.7566C28.9378 16.5567 28.6492 17.3217 28.1886 17.9823C27.728 18.6428 27.11 19.1781 26.3904 19.5397C25.6709 19.9013 24.8726 20.0778 24.0677 20.0531C23.2628 20.0285 22.4767 19.8036 21.7806 19.3987C21.0845 18.9938 20.5004 18.4217 20.0811 17.7342C19.6617 17.0467 19.4205 16.2655 19.3791 15.4613C19.3377 14.6571 19.4974 13.8552 19.8439 13.1283L16.6168 9.89954C16.0103 10.1901 15.3498 10.3508 14.6776 10.3714C14.0054 10.3919 13.3364 10.2719 12.7132 10.019L9.33434 13.4011C9.76248 14.4601 9.80257 15.6363 9.44752 16.7219C9.09248 17.8076 8.36515 18.7328 7.39403 19.3341C6.42291 19.9355 5.2705 20.1742 4.14041 20.0082C3.01031 19.8422 1.97525 19.2821 1.2181 18.4269C0.460944 17.5717 0.0304241 16.4764 0.00259808 15.3345C-0.025228 14.1926 0.351431 13.0776 1.06603 12.1865C1.78063 11.2954 2.78718 10.6856 3.90785 10.4647C5.02852 10.2439 6.19118 10.4262 7.19044 10.9796L10.2917 7.87833C9.93391 7.23174 9.72887 6.51185 9.69223 5.77379C9.65559 5.03573 9.78833 4.29907 10.0803 3.62022C10.3722 2.94137 10.8157 2.33833 11.3766 1.85727C11.9376 1.37622 12.6011 1.0299 13.3166 0.844847C14.032 0.659791 14.7803 0.640901 15.5041 0.789623C16.228 0.938346 16.9082 1.25074 17.4927 1.70288C18.0772 2.15502 18.5505 2.73491 18.8763 3.39817C19.2022 4.06142 19.3719 4.79044 19.3725 5.52941Z" fill="white" fill-opacity="0.6"/>
</svg>
