<svg width="42" height="30" viewBox="0 0 42 30" fill="none" xmlns="http://www.w3.org/2000/svg">
<g clip-path="url(#clip0_1117_183)">
<path fill-rule="evenodd" clip-rule="evenodd" d="M33.1031 0C28.2166 0 24.2295 3.94571 24.1918 8.81L18.642 16.7514C17.0938 16.6114 15.7585 16.9314 14.5782 17.65L1.32791 11.3071C-1.65988 15.7386 1.32791 20.1686 1.32791 20.1686L11.4731 24.7657C12.1219 27.7514 14.7969 30 17.9614 30C21.4025 30 24.2541 27.3614 24.5669 24.0014L33.1103 17.7686C38.0113 17.7686 41.9984 13.8014 41.9984 8.88143L41.9969 8.88C41.9984 3.98286 38.0113 0 33.1031 0ZM17.9614 28.2329C16.0829 28.2329 14.4667 27.1786 13.6455 25.64L16.0453 26.5929C18.0396 27.4129 20.3061 26.4357 21.1027 24.4443C21.4881 23.4929 21.477 22.4298 21.0717 21.4865C20.6665 20.5431 19.9 19.7958 18.9389 19.4071L16.9056 18.5871C17.2519 18.5092 17.6061 18.4699 17.9614 18.47C20.674 18.47 22.8464 20.64 22.8464 23.35C22.8464 26.06 20.674 28.2314 17.9614 28.2314V28.2329ZM33.1118 14.8343C29.8126 14.8343 27.1318 12.1786 27.1318 8.88286C27.1318 5.60143 29.8054 2.93143 33.1118 2.93143C36.3878 2.93143 39.0685 5.60286 39.0685 8.88286C39.0685 12.1871 36.3863 14.8429 33.1118 14.8343ZM33.1277 4.10571C30.4933 4.10571 28.36 6.23857 28.36 8.86857C28.36 11.4986 30.486 13.6314 33.1277 13.6314C35.7462 13.6314 37.8954 11.5071 37.8954 8.86857C37.8954 6.23 35.7462 4.10571 33.1277 4.10571Z" fill="white"/>
</g>
<defs>
<clipPath id="clip0_1117_183">
<rect width="42" height="30" fill="white"/>
</clipPath>
</defs>
</svg>
